:version 1.10
:name ASF
:units
  mass 1
  length 1
  angle deg
:documentation
  ASF file generated by Kaydara
:root
  axis xyz
  order  tx ty tz rx ry rz
  position 0 0 0
  orientation 0 0 0
:bonedata
  begin
    id 1
    name RightUpLegDummy
    direction -0.718183 -0.695806 0.00816078
    length 4.904
    axis 0 0 0 xyz
  end
  begin
    id 2
    name RightUpLeg
    direction -0.0736652 -0.994202 0.0783343
    length 17.4976
    axis -2.72909 -3.00389 -4.00133 xyz
    dof rx ry rz
  end
  begin
    id 3
    name RightLeg
    direction -0.0389037 -0.994596 -0.0962598
    length 16.5821
    axis 3.95836 -18.5909 -4.46993 xyz
    dof rx ry rz
  end
  begin
    id 4
    name RightFoot
    direction -0.311643 -0.412678 0.855906
    length 3.77069
    axis -1.99483 -18.8351 -3.27644 xyz
    dof rx ry rz
  end
  begin
    id 5
    name RightToes
    direction -0.317852 0.0389852 0.947339
    length 3.85082
    axis -2.00228 -18.1713 -3.25211 xyz
    dof rx ry rz
  end
  begin
    id 6
    name SpineDummy
    direction 8.3039e-015 1 4.44677e-016
    length 4.6813
    axis 0 0 0 xyz
  end
  begin
    id 7
    name Spine
    direction -0.000262373 0.999988 0.00493267
    length 10.1015
    axis -0.00246081 0.00062579 0.0150362 xyz
    dof rx ry rz
  end
  begin
    id 8
    name Spine1
    direction 0 0 0
    length 0
    axis -0.00349562 0.000650293 0.0196666 xyz
    dof rx ry rz
  end
  begin
    id 9
    name HEadDummy
    direction -0.000343232 0.999999 0.00123745
    length 3.43865
    axis -0.00349562 0.000650293 0.0196666 xyz
  end
  begin
    id 10
    name HEad
    direction -0.0461221 0.980933 0.188796
    length 5.12695
    axis -0.00351404 -7.04812 0.0199272 xyz
    dof rx ry rz
  end
  begin
    id 11
    name LeftShoulder1Dummy
    direction 0.998904 -0.0399089 -0.0244534
    length 3.5433
    axis -0.00349562 0.000650293 0.0196666 xyz
  end
  begin
    id 12
    name LeftShoulder1
    direction 0.99951 1.64443e-005 0.0312999
    length 4.05031
    axis -0.00349562 0.000650293 0.0196666 xyz
    dof rx ry rz
  end
  begin
    id 13
    name LeftArm
    direction 0.984791 0.0515299 0.165927
    length 12.9126
    axis -64.823 -10.7743 5.20463 xyz
    dof rx ry rz
  end
  begin
    id 14
    name LeftForeArm
    direction 0.984968 0.0534808 0.16425
    length 10.8596
    axis -30.0462 -7.70601 1.87451 xyz
    dof rx ry rz
  end
  begin
    id 15
    name LeftHand
    direction 0.975871 0.0289682 0.216418
    length 6.62295
    axis -20.1348 -6.98077 1.86072 xyz
    dof rx ry rz
  end
  begin
    id 16
    name RightShoulderDummy
    direction -0.998877 -0.0405946 -0.0244307
    length 3.5433
    axis -0.00349562 0.000650293 0.0196666 xyz
  end
  begin
    id 17
    name RightShoulder
    direction -0.998933 -0.0249743 -0.0388558
    length 4.05031
    axis -0.0205316 -4.02113 1.41395 xyz
    dof rx ry rz
  end
  begin
    id 18
    name RightArm
    direction -0.997559 0.068664 0.0127103
    length 12.9638
    axis -67.3882 1.84188 -6.15987 xyz
    dof rx ry rz
  end
  begin
    id 19
    name RightForeArm
    direction -0.991508 0.0912848 0.0926241
    length 10.8312
    axis -22.1975 3.41087 -4.28711 xyz
    dof rx ry rz
  end
  begin
    id 20
    name RightHand
    direction -0.989262 0.0600788 0.133232
    length 6.57864
    axis -12.2911 2.17515 -4.39675 xyz
    dof rx ry rz
  end
  begin
    id 21
    name LeftUpLegDummy
    direction 0.718183 -0.695806 0.00816078
    length 4.904
    axis 0 0 0 xyz
  end
  begin
    id 22
    name LeftUpLeg
    direction 0.0831398 -0.99469 0.0606531
    length 17.4976
    axis -1.71016 2.29552 4.63832 xyz
    dof rx ry rz
  end
  begin
    id 23
    name LeftLeg
    direction 0.0498442 -0.991778 -0.117862
    length 16.5821
    axis 5.13757 15.5727 5.13348 xyz
    dof rx ry rz
  end
  begin
    id 24
    name LeftFoot
    direction 0.269026 -0.433896 0.85986
    length 3.77069
    axis -0.576502 15.6961 4.10267 xyz
    dof rx ry rz
  end
  begin
    id 25
    name LeftToes
    direction 0.277311 0.0251143 0.960452
    length 3.85048
    axis -0.576502 15.6961 4.10267 xyz
    dof rx ry rz
  end
:hierarchy
  begin
    root RightUpLegDummy SpineDummy LeftUpLegDummy
    RightUpLegDummy RightUpLeg
    RightUpLeg RightLeg
    RightLeg RightFoot
    RightFoot RightToes
    SpineDummy Spine
    Spine Spine1
    Spine1 HEadDummy LeftShoulder1Dummy RightShoulderDummy
    HEadDummy HEad
    LeftShoulder1Dummy LeftShoulder1
    LeftShoulder1 LeftArm
    LeftArm LeftForeArm
    LeftForeArm LeftHand
    RightShoulderDummy RightShoulder
    RightShoulder RightArm
    RightArm RightForeArm
    RightForeArm RightHand
    LeftUpLegDummy LeftUpLeg
    LeftUpLeg LeftLeg
    LeftLeg LeftFoot
    LeftFoot LeftToes
  end

:SAMPLES-PER-SECOND 30
:FULLY-SPECIFIED
:DEGREES
138
root  -7.46138 39.6649 35.3591 4.54175 -8.63695 0.781896
RightUpLeg  -17.3236 -4.91233 2.54817
RightLeg  16.587 3.97646 -2.52225
RightFoot  -9.55784 -0.0758883 3.21033
RightToes  -5.82073e-011 -3.18055e-015 -2.98177e-016
Spine  13.3052 -1.2588 3.05291
Spine1  2.06232 -0.862931 -1.17396
HEad  -20.1861 11.7968 1.32335
LeftShoulder1  -3.88251e-019 9.70628e-020 -3.87848e-018
LeftArm  43.2942 81.5922 19.9964
LeftForeArm  0.224715 0.515244 2.15265
LeftHand  -0.0992896 4.07099 11.7154
RightShoulder  7.0105 10.2319 33.5359
RightArm  37.5966 -57.7729 -47.4518
RightForeArm  2.63932 4.86382 -8.55409
RightHand  -0.0337933 -5.2936 -18.8261
LeftUpLeg  -14.872 0.855399 -3.39698
LeftLeg  16.4573 9.00524 8.43028
LeftFoot  -8.25834 0.170491 -4.59144
LeftToes  5.79026e-011 9.70705e-012 -3.73859e-011
139
root  -7.39248 39.3852 35.155 7.67424 -8.95251 0.219946
RightUpLeg  -22.5929 -7.07349 4.36398
RightLeg  19.6955 6.72526 -2.8133
RightFoot  -12.5205 0.0112216 3.72563
RightToes  -5.82073e-011 -3.18055e-015 -2.98177e-016
Spine  13.6486 -1.62413 4.11838
Spine1  1.63524 -1.3151 -1.19725
HEad  -20.8776 12.8593 1.06161
LeftShoulder1  -3.88251e-019 9.70628e-020 -3.87848e-018
LeftArm  76.5624 79.9067 54.5603
LeftForeArm  1.12065 0.463341 2.18853
LeftHand  -0.113688 3.90014 11.4295
RightShoulder  6.69245 10.0986 32.1553
RightArm  48.4855 -56.705 -60.5976
RightForeArm  0.260389 7.90507 -7.98957
RightHand  -0.279501 -3.6617 -17.3858
LeftUpLeg  -20.5726 1.84561 -3.16514
LeftLeg  20.6624 8.09931 9.95233
LeftFoot  -11.1868 0.0635474 -5.60802
LeftToes  5.79026e-011 9.70705e-012 -3.73859e-011
140
root  -7.30275 38.8238 34.9024 11.336 -9.25562 -0.613202
RightUpLeg  -29.8914 -9.78084 7.37944
RightLeg  25.2264 11.0543 -3.30031
RightFoot  -16.25 0.14243 3.47261
RightToes  -5.82073e-011 -3.18055e-015 -2.98177e-016
Spine  14.2683 -1.73279 5.57556
Spine1  0.560407 -1.5895 -1.21428
HEad  -21.6676 13.5033 0.703746
LeftShoulder1  -3.88251e-019 9.70628e-020 -3.87848e-018
LeftArm  94.9676 76.745 72.8943
LeftForeArm  0.0322593 0.0599398 1.60074
LeftHand  -0.134069 3.61832 10.8157
RightShoulder  6.39843 10.043 30.7082
RightArm  57.6336 -55.4632 -71.8099
RightForeArm  -5.70052 10.895 -7.8158
RightHand  -0.314441 -3.19553 -15.4414
LeftUpLeg  -28.0956 2.48271 -2.72601
LeftLeg  27.0743 5.7541 11.6725
LeftFoot  -14.6135 -0.119347 -6.07552
LeftToes  5.79026e-011 9.70705e-012 -3.73859e-011
141
root  -7.20266 37.9762 34.6338 14.6318 -10.1533 -1.35278
RightUpLeg  -37.6072 -8.07025 8.72457
RightLeg  32.4551 11.6193 -3.91381
RightFoot  -19.5987 0.263481 3.5898
RightToes  -5.82073e-011 -3.18055e-015 -2.98177e-016
Spine  15.0452 -1.47934 6.40476
Spine1  0.256393 -1.54748 -1.17253
HEad  -23.6388 13.9749 0.222811
LeftShoulder1  -3.88251e-019 9.70628e-020 -3.87848e-018
LeftArm  107.766 73.5082 84.381
LeftForeArm  -2.91507 -1.97697 0.901511
LeftHand  -0.134184 3.40905 9.29485
RightShoulder  6.23724 10.1225 29.6775
RightArm  63.8793 -53.8004 -79.6402
RightForeArm  -13.6507 13.342 -7.61154
RightHand  -0.144144 -4.39496 -14.7505
LeftUpLeg  -35.7923 2.71079 -2.30122
LeftLeg  34.5425 2.50906 12.9392
LeftFoot  -17.6554 -0.293641 -6.18709
LeftToes  5.79026e-011 9.70705e-012 -3.73859e-011
142
root  -7.10604 36.8406 34.3533 16.5162 -11.459 -1.69835
RightUpLeg  -44.5317 -5.75844 8.92072
RightLeg  40.5124 11.5681 -4.93497
RightFoot  -21.7088 0.353939 3.8328
RightToes  -5.82073e-011 -3.18055e-015 -2.98177e-016
Spine  16.3758 -1.21768 6.05624
Spine1  1.56173 -1.4991 -0.759496
HEad  -27.2068 14.7332 -0.656102
LeftShoulder1  -3.88251e-019 9.70628e-020 -3.87848e-018
LeftArm  118.696 70.4956 92.9451
LeftForeArm  -5.38103 -4.93348 -0.0210641
LeftHand  -0.119805 2.97287 6.4872
RightShoulder  6.22806 10.2558 29.3557
RightArm  67.1543 -51.8786 -83.3954
RightForeArm  -18.7622 15.0608 -7.26957
RightHand  -0.0118364 -5.46035 -16.2978
LeftUpLeg  -42.4031 2.48425 -2.05757
LeftLeg  42.73 -0.270473 14.3469
LeftFoot  -20.241 -0.441828 -6.19328
LeftToes  5.79026e-011 9.70705e-012 -3.73859e-011
143
root  -7.00329 35.406 34.0799 17.0514 -12.4733 -1.99633
RightUpLeg  -50.5418 -4.1458 8.9476
RightLeg  49.1698 11.8583 -6.0173
RightFoot  -22.6056 0.337564 3.21617
RightToes  -5.82073e-011 -3.18055e-015 -2.98177e-016
Spine  18.606 -1.25307 5.64072
Spine1  3.31476 -1.71814 -0.133874
HEad  -31.0947 15.7565 -1.85988
LeftShoulder1  -3.88251e-019 9.70628e-020 -3.87848e-018
LeftArm  126.126 67.9231 97.8523
LeftForeArm  -4.40445 -7.29931 -1.10996
LeftHand  -0.0890488 1.86907 3.16639
RightShoulder  6.29853 10.3214 29.5992
RightArm  68.5901 -49.9983 -84.7553
RightForeArm  -19.5216 16.2888 -7.16951
RightHand  -0.0105064 -5.45685 -19.1397
LeftUpLeg  -48.109 1.89731 -1.62945
LeftLeg  51.6282 -2.21768 16.8218
LeftFoot  -22.7613 -0.621371 -6.60032
LeftToes  5.79026e-011 9.70705e-012 -3.73859e-011
